# AST/ASF file generated using VICON BodyLanguage
# -----------------------------------------------
:version 1.10
:name VICON
:units
  mass 1.0
  length 0.45
  angle deg
:documentation
   .ast/.asf automatically generated from VICON data using
   VICON BodyBuilder and BodyLanguage model FoxedUp or BRILLIANT.MOD
:root
   order TX TY TZ RX RY RZ
   axis XYZ
   position 0 0 0  
   orientation 0 0 0 
:bonedata
  begin
     id 1 
     name lhipjoint
     direction 0.623415 -0.642378 0.445763 
     length 2.49859 
     axis 0 0 0  XYZ
  end
  begin
     id 2 
     name lfemur
     direction 0.34202 -0.939693 0  
     length 6.69689  
     axis 0 0 20  XYZ
    dof rx ry rz
    limits (-160.0 20.0)
           (-70.0 70.0)
           (-60.0 70.0)
  end
  begin
     id 3 
     name ltibia
     direction 0.34202 -0.939693 0   
     length 7.37574   
     axis 0 0 20   XYZ
    dof rx
    limits (-10.0 170.0)
  end
  begin
     id 4 
     name lfoot
     direction 0.084323 -0.231675 0.969132   
     length 2.09111   
     axis -90 7.62852e-016 20   XYZ
    dof rx rz
    limits (-45.0 90.0)
           (-70.0 20.0)
  end
  begin
     id 5 
     name ltoes
     direction 1.5357e-011 -4.21957e-011 1   
     length 1.04989   
     axis -90 7.62852e-016 20   XYZ
    dof rx
    limits (-90.0 20.0)
  end
  begin
     id 6 
     name rhipjoint
     direction -0.605402 -0.653903 0.45376   
     length 2.45455  
     axis 0 0 0  XYZ 
  end
  begin
     id 7 
     name rfemur
     direction -0.34202 -0.939693 0   
     length 6.64523   
     axis 0 0 -20   XYZ
    dof rx ry rz
    limits (-160.0 20.0)
           (-70.0 70.0)
           (-70.0 60.0)
  end
  begin
     id 8 
     name rtibia
     direction -0.34202 -0.939693 0   
     length 7.3339   
     axis 0 0 -20   XYZ
    dof rx
    limits (-10.0 170.0)
 end
 begin
     id 9 
     name rfoot
     direction -0.120854 -0.332043 0.93549   
     length 2.23135  
     axis -90 -7.62852e-016 -20   XYZ
    dof rx rz
    limits (-45.0 90.0)
           (-20.0 70.0)
  end
  begin
     id 10 
     name rtoes
     direction -1.53563e-011 -4.21914e-011 1   
     length 1.10614   
     axis -90 -7.62852e-016 -20   XYZ
    dof rx
    limits (-90.0 20.0)
  end
  begin
     id 11 
     name lowerback
     direction 0.0319682 0.998615 -0.0417941   
     length 2.02718   
     axis 0 0 0   XYZ
    dof rx ry rz
    limits (-20.0 45.0)
           (-30.0 30.0)
           (-30.0 30.0)
  end
  begin
     id 12 
     name upperback
     direction 7.63181e-005 0.995808 0.0914691   
     length 1.97539   
     axis 0 0 0   XYZ
    dof rx ry rz
    limits (-20.0 45.0)
           (-30.0 30.0)
           (-30.0 30.0)
  end
  begin
     id 13 
     name thorax
     direction -0.016423 0.993627 0.111514   
     length 2.00349   
     axis 0 0 0   XYZ
    dof rx ry rz
    limits (-20.0 45.0)
           (-30.0 30.0)
           (-30.0 30.0)
  end
  begin
     id 14 
     name lowerneck
     direction -0.174763 0.981668 -0.0760716   
     length 1.71436   
     axis 0 0 0   XYZ
    dof rx ry rz
    limits (-20.0 45.0)
           (-30.0 30.0)
           (-30.0 30.0)
  end
  begin
     id 15 
     name upperneck
     direction 0.345458 0.934587 -0.0848868   
     length 1.72805   
     axis 0 0 0   XYZ
    dof rx ry rz
    limits (-20.0 45.0)
           (-30.0 30.0)
           (-30.0 30.0)
  end
  begin
     id 16
     name head
     direction 0.13001 0.989848 -0.0574291  
     length 1.767  
     axis 0 0 0   XYZ
    dof rx ry rz
    limits (-20.0 45.0)
           (-30.0 30.0)
           (-30.0 30.0)
  end
  begin
     id 17 
     name lclavicle
     direction 0.952951 0.290122 0.0878234  
     length 3.54654  
     axis 0 0 0   XYZ
    dof ry rz
    limits (-20.0 10.0)
           (0.0 20.0)
  end
  begin
     id 18 
     name lhumerus
     direction 1 -4.48957e-011 -4.56525e-028   
     length 5.19807   
     axis 180 -30 -90   XYZ
    dof rx ry rz
    limits (-60.0 90.0)
           (-90.0 90.0)
           (-90.0 90.0)
  end
  begin
     id 19
     name lradius
     direction 1 -4.48979e-011 -2.0317e-027   
     length 3.0937   
     axis 180 -30 -90   XYZ
    dof rx
    limits (-10.0 170.0)
  end
  begin
     id 20
     name lwrist
     direction 1 -4.48953e-011 -3.05809e-027   
     length 1.54685   
     axis 8.48514e-016 90 90   XYZ
    dof ry
    limits (-180.0 0.0)
 end
  begin
     id 21 
     name lhand
     direction 1 -4.48952e-011 -6.11639e-027   
     length 0.672632   
     axis 3.9013e-015 90 90   XYZ
    dof rx rz
    limits (-90.0 90.0)
           (-45.0 45.0)
  end
  begin
     id 22 
     name lfingers
     direction 1 -4.48925e-011 -1.22426e-026   
     length 0.542293   
     axis 7.80276e-015 90 90   XYZ
    dof rx
    limits (0.0 90.0)
  end
  begin
     id 23
     name lthumb
     direction 0.707107 -6.3486e-011 0.707107   
     length 0.778628   
     axis -90 45 5.37419e-014   XYZ
    dof rx rz
    limits (-45.0 45.0)
           (-45.0 45.0)
  end
  begin
     id 24 
     name rclavicle
     direction -0.960732 0.273675 -0.0457849   
     length 3.52079  
     axis 0 0 0   XYZ 
    dof ry rz
    limits (-10.0 20.0)
           (-20.0 0.0)
  end
  begin
     id 25 
     name rhumerus
     direction -1 -4.48976e-011 -1.63613e-027  
     length 5.45222   
     axis 180 30 90   XYZ
    dof rx ry rz
    limits (-90.0 60.0)
           (-90.0 90.0)
           (-90.0 90.0)
  end
  begin
     id 26 
     name rradius
     direction -1 -4.48957e-011 -7.00033e-028   
     length 3.01284   
     axis 180 30 90   XYZ
    dof rx
    limits (-10.0 170.0)
  end
  begin
     id 27 
     name rwrist
     direction -1 -4.48983e-011 -3.05543e-027   
     length 1.50642   
     axis 8.48514e-016 -90 -90   XYZ
    dof ry
    limits (-180.0 0.0)
  end
  begin
     id 28
     name rhand
     direction -1 -4.48984e-011 -6.11072e-027   
     length 0.622296   
     axis 3.9013e-015 -90 -90   XYZ
    dof rx rz
    limits (-90.0 90.0)
           (-45.0 45.0)
  end
  begin
     id 29
     name rfingers
     direction -1 -4.48865e-011 -1.22637e-026   
     length 0.501711   
     axis 7.80276e-015 -90 -90   XYZ
    dof rx
    limits (0.0 90.0)
  end
  begin
     id 30
     name rthumb
     direction -0.707107 -6.34932e-011 0.707107   
     length 0.72036   
     axis -90 -45 -5.37419e-014   XYZ
    dof rx rz
    limits (-45.0 45.0)
           (-45.0 45.0)
  end
:hierarchy
  begin
    root lhipjoint rhipjoint lowerback
    lhipjoint lfemur
    lfemur ltibia
    ltibia lfoot
    lfoot ltoes
    rhipjoint rfemur
    rfemur rtibia
    rtibia rfoot
    rfoot rtoes
    lowerback upperback
    upperback thorax
    thorax lowerneck lclavicle rclavicle
    lowerneck upperneck
    upperneck head
    lclavicle lhumerus
    lhumerus lradius
    lradius lwrist
    lwrist lhand lthumb
    lhand lfingers
    rclavicle rhumerus
    rhumerus rradius
    rradius rwrist
    rwrist rhand rthumb
    rhand rfingers
  end

#!OML:ASF H:\Not Pregnant\Project 1\Capture day 1\Session 1\non-pregnant.ASF
:FULLY-SPECIFIED
:DEGREES
330
root 10.1177 15.9129 14.6027 189.914 26.8093 177.427
lowerback -1.84454 1.73427 1.51337
upperback -8.60191 2.88685 -2.0193
thorax -7.79488 1.50917 -3.14395
lowerneck 1.31633 -9.66306 -28.9273
upperneck 7.96258 -15.1107 35.9352
head 7.85467 -6.92497 17.4881
rclavicle -2.48481e-016 8.05078e-015
rhumerus -24.4247 21.1368 -77.3128
rradius 64.5726
rwrist -17.8212
rhand -17.2279 -30.1146
rfingers 7.12502
rthumb 9.01542 -59.9019
lclavicle -2.48481e-016 8.05078e-015
lhumerus -33.7418 -17.449 76.0035
lradius 74.439
lwrist 61.6278
lhand -20.9278 15.5811
lfingers 7.12502
lthumb 5.44403 45.4911
rfemur -39.5238 2.11296 15.036
rtibia 63.2807
rfoot -13.2894 -2.95447
rtoes -31.8025
lfemur -26.1636 2.4004 -28.7104
ltibia 32.9119
lfoot -18.8283 -12.0426
ltoes -8.70053
331
root 10.1733 15.9056 14.4919 189.9 26.3513 177.45
lowerback -1.74863 1.66593 1.44845
upperback -8.56201 2.79099 -1.96521
thorax -7.8178 1.46557 -3.04932
lowerneck 1.39564 -9.70095 -28.9413
upperneck 7.84715 -15.1641 35.9588
head 7.82979 -6.96042 17.4853
rclavicle -1.68222e-014 -6.4605e-015
rhumerus -24.3019 21.0483 -77.2841
rradius 64.6391
rwrist -17.8193
rhand -17.1298 -30.0596
rfingers 7.12502
rthumb 9.11013 -59.8429
lclavicle -1.68222e-014 -6.4605e-015
lhumerus -33.5975 -17.4745 75.9033
lradius 74.4619
lwrist 61.6833
lhand -20.829 15.6575
lfingers 7.12502
lthumb 5.53947 45.5651
rfemur -40.2569 2.18376 15.2367
rtibia 61.9361
rfoot -13.6614 -3.97009
rtoes -31.7519
lfemur -25.6836 2.1771 -28.6511
ltibia 33.0228
lfoot -19.1892 -12.1104
ltoes -8.57161
332
root 10.2291 15.8988 14.3822 189.898 25.8602 177.47
lowerback -1.64843 1.58412 1.3758
upperback -8.52689 2.67741 -1.91086
thorax -7.84945 1.41385 -2.9495
lowerneck 1.47489 -9.73532 -28.9552
upperneck 7.72793 -15.2117 35.9896
head 7.80256 -6.9928 17.4874
rclavicle -6.83322e-015 8.94531e-016
rhumerus -24.1814 20.9575 -77.2546
rradius 64.7113
rwrist -17.8074
rhand -16.8091 -29.8358
rfingers 7.12502
rthumb 9.41957 -59.6053
lclavicle -6.83322e-015 8.94531e-016
lhumerus -33.4486 -17.4996 75.8036
lradius 74.4857
lwrist 61.7258
lhand -20.7304 15.7255
lfingers 7.12502
lthumb 5.63466 45.6306
rfemur -40.9482 2.25612 15.4147
rtibia 60.4657
rfoot -13.9414 -4.94836
rtoes -31.6438
lfemur -25.2027 1.8958 -28.5806
ltibia 33.0991
lfoot -19.5226 -12.1555
ltoes -8.53135
333
root 10.2853 15.8932 14.2732 189.912 25.3391 177.487
lowerback -1.54717 1.48563 1.2914
upperback -8.50461 2.54319 -1.84716
thorax -7.89733 1.35351 -2.83264
lowerneck 1.56199 -9.75652 -28.9808
upperneck 7.61648 -15.2428 36.0226
head 7.77102 -7.01829 17.4981
rclavicle -4.78326e-014 1.86858e-014
rhumerus -24.081 20.8894 -77.2225
rradius 64.7934
rwrist -17.7883
rhand -16.5003 -29.6367
rfingers 7.12502
rthumb 9.7175 -59.3925
lclavicle -4.78326e-014 1.86858e-014
lhumerus -33.3167 -17.5086 75.7159
lradius 74.5109
lwrist 61.7583
lhand -20.6402 15.786
lfingers 7.12502
lthumb 5.72177 45.6888
rfemur -41.5942 2.32714 15.5666
rtibia 58.8719
rfoot -14.1333 -5.8657
rtoes -31.5005
lfemur -24.7159 1.56725 -28.5009
ltibia 33.1301
lfoot -19.8235 -12.1863
ltoes -8.57662
334
root 10.342 15.8895 14.1644 189.947 24.7939 177.507
lowerback -1.45388 1.37631 1.19864
upperback -8.49523 2.39639 -1.77566
thorax -7.95535 1.28852 -2.70209
lowerneck 1.65803 -9.76881 -29.0124
upperneck 7.50986 -15.2631 36.0578
head 7.73581 -7.03938 17.5146
rclavicle -6.0474e-014 -9.34288e-015
rhumerus -24.0003 20.8296 -77.1867
rradius 64.8823
rwrist -17.761
rhand -16.2382 -29.4898
rfingers 7.12502
rthumb 9.97038 -59.2337
lclavicle -6.0474e-014 -9.34288e-015
lhumerus -33.1985 -17.5065 75.6428
lradius 74.5356
lwrist 61.7799
lhand -20.5598 15.846
lfingers 7.12502
lthumb 5.79934 45.7466
rfemur -42.1978 2.39931 15.6935
rtibia 57.1568
rfoot -14.2296 -6.69549
rtoes -31.3333
lfemur -24.2215 1.20308 -28.4094
ltibia 33.1034
lfoot -20.0965 -12.1967
ltoes -8.73391
335
root 10.3993 15.8879 14.0551 189.999 24.232 177.526
lowerback -1.37364 1.26276 1.09612
upperback -8.49756 2.24557 -1.70103
thorax -8.01846 1.22321 -2.56211
lowerneck 1.75809 -9.77809 -29.0425
upperneck 7.40958 -15.2802 36.0926
head 7.70032 -7.05872 17.5322
rclavicle -4.70561e-014 -5.56597e-015
rhumerus -23.939 20.7646 -77.147
rradius 64.9711
rwrist -17.7268
rhand -16.0126 -29.382
rfingers 7.12502
rthumb 10.188 -59.1153
lclavicle -4.70561e-014 -5.56597e-015
lhumerus -33.0924 -17.5033 75.5887
lradius 74.5588
lwrist 61.7961
lhand -20.4938 15.8972
lfingers 7.12502
lthumb 5.86307 45.7961
rfemur -42.7549 2.47298 15.7868
rtibia 55.3281
rfoot -14.2359 -7.39339
rtoes -31.1452
lfemur -23.7114 0.816982 -28.3127
ltibia 33.0107
lfoot -20.3309 -12.2111
ltoes -8.92651
336
root 10.4572 15.8887 13.9447 190.067 23.6678 177.545
lowerback -1.31669 1.15676 0.993877
upperback -8.50268 2.10539 -1.63422
thorax -8.06941 1.16367 -2.42985
lowerneck 1.85869 -9.79434 -29.0583
upperneck 7.30927 -15.3066 36.1294
head 7.66745 -7.08124 17.5461
rclavicle 4.58416e-014 2.73329e-016
rhumerus -23.8843 20.6629 -77.1068
rradius 65.0514
rwrist -17.6859
rhand -15.8667 -29.3463
rfingers 7.12502
rthumb 10.3287 -59.0726
lclavicle 4.58416e-014 2.73329e-016
lhumerus -32.9737 -17.5173 75.5432
lradius 74.5754
lwrist 61.813
lhand -20.4392 15.9372
lfingers 7.12502
lthumb 5.91577 45.8346
rfemur -43.2638 2.55792 15.8434
rtibia 53.3924
rfoot -14.1463 -7.9196
rtoes -30.9232
lfemur -23.1777 0.424149 -28.2102
ltibia 32.8451
lfoot -20.5311 -12.2259
ltoes -9.11846
337
root 10.516 15.8918 13.8331 190.151 23.106 177.561
lowerback -1.29048 1.06099 0.893331
upperback -8.50772 1.97899 -1.58232
thorax -8.10043 1.11111 -2.31356
lowerneck 1.96051 -9.82271 -29.0631
upperneck 7.20023 -15.3493 36.1783
head 7.63918 -7.11043 17.5606
rclavicle -2.71403e-014 -3.8266e-015
rhumerus -23.8282 20.5151 -77.0728
rradius 65.1143
rwrist -17.6404
rhand -15.7899 -29.3533
rfingers 7.12502
rthumb 10.4028 -59.076
lclavicle -2.71403e-014 -3.8266e-015
lhumerus -32.8377 -17.552 75.5002
lradius 74.584
lwrist 61.827
lhand -20.3946 15.9629
lfingers 7.12502
lthumb 5.95882 45.8591
rfemur -43.7293 2.6579 15.8572
rtibia 51.3605
rfoot -13.9606 -8.24953
rtoes -30.6826
lfemur -22.6209 0.0382093 -28.1067
ltibia 32.6054
lfoot -20.6999 -12.2514
ltoes -9.33655
338
root 10.5754 15.8975 13.7202 190.241 22.55 177.566
lowerback -1.29293 0.975759 0.787366
upperback -8.50934 1.86606 -1.54712
thorax -8.10939 1.06558 -2.2113
lowerneck 2.06096 -9.86539 -29.0603
upperneck 7.08531 -15.4118 36.2377
head 7.61844 -7.14812 17.575
rclavicle 1.36727e-014 2.28602e-014
rhumerus -23.7695 20.3294 -77.0459
rradius 65.1621
rwrist -17.597
rhand -15.7421 -29.3763
rfingers 7.12502
rthumb 10.449 -59.0966
lclavicle 1.36727e-014 2.28602e-014
lhumerus -32.6814 -17.6054 75.4582
lradius 74.5835
lwrist 61.8412
lhand -20.3564 15.9806
lfingers 7.12502
lthumb 5.99571 45.8758
rfemur -44.1444 2.77338 15.8176
rtibia 49.2424
rfoot -13.7045 -8.35197
rtoes -30.4192
lfemur -22.037 -0.332469 -28.0096
ltibia 32.2925
lfoot -20.8085 -12.3407
ltoes -9.36117
339
root 10.6357 15.9052 13.6061 190.336 22.0073 177.556
lowerback -1.33085 0.900084 0.675624
upperback -8.50656 1.76531 -1.53023
thorax -8.09139 1.02642 -2.12438
lowerneck 2.16035 -9.9156 -29.0488
upperneck 6.97244 -15.4851 36.3066
head 7.60363 -7.18957 17.5914
rclavicle 3.74895e-014 1.00883e-014
rhumerus -23.712 20.1167 -77.031
rradius 65.1999
rwrist -17.556
rhand -15.667 -29.3734
rfingers 7.12502
rthumb 10.5214 -59.0901
lclavicle 3.74895e-014 1.00883e-014
lhumerus -32.5022 -17.6706 75.407
lradius 74.5696
lwrist 61.8525
lhand -20.3159 15.9968
lfingers 7.12502
lthumb 6.03479 45.8908
rfemur -44.5147 2.90927 15.7208
rtibia 47.0527
rfoot -13.3935 -8.22285
rtoes -30.1667
lfemur -21.4328 -0.674115 -27.9234
ltibia 31.9133
lfoot -20.8526 -12.5095
ltoes -9.16014
340
root 10.6968 15.9144 13.491 190.428 21.4852 177.527
lowerback -1.38727 0.831521 0.545462
upperback -8.50366 1.67373 -1.52347
thorax -8.06183 0.993092 -2.03785
lowerneck 2.26251 -9.96577 -29.0355
upperneck 6.87118 -15.5603 36.3754
head 7.59247 -7.23155 17.6083
rclavicle -4.91433e-014 -1.03368e-014
rhumerus -23.6584 19.9015 -77.0256
rradius 65.2245
rwrist -17.5198
rhand -15.5668 -29.3448
rfingers 7.12502
rthumb 10.618 -59.0566
lclavicle -4.91433e-014 -1.03368e-014
lhumerus -32.3202 -17.7316 75.3577
lradius 74.5431
lwrist 61.8548
lhand -20.2757 16.0093
lfingers 7.12502
lthumb 6.0736 45.9023
rfemur -44.8379 3.07192 15.5647
rtibia 44.8076
rfoot -13.0416 -7.86701
rtoes -29.9539
lfemur -20.803 -0.972066 -27.8523
ltibia 31.475
lfoot -20.837 -12.7598
ltoes -8.74036
341
root 10.7585 15.9242 13.3748 190.512 20.9845 177.48
lowerback -1.4519 0.765219 0.390479
upperback -8.50685 1.58569 -1.51792
thorax -8.03414 0.963641 -1.93903
lowerneck 2.36961 -10.0089 -29.0286
upperneck 6.79146 -15.6292 36.4346
head 7.58356 -7.27107 17.6249
rclavicle 1.5412e-014 4.96962e-017
rhumerus -23.6183 19.7094 -77.0277
rradius 65.2358
rwrist -17.4906
rhand -15.5143 -29.3429
rfingers 7.12502
rthumb 10.6687 -59.0521
lclavicle 1.5412e-014 4.96962e-017
lhumerus -32.1585 -17.7728 75.3213
lradius 74.507
lwrist 61.8463
lhand -20.2382 16.0228
lfingers 7.12502
lthumb 6.10983 45.9147
rfemur -45.1143 3.25428 15.3546
rtibia 42.5287
rfoot -12.6643 -7.3053
rtoes -29.8084
lfemur -20.1448 -1.2195 -27.7986
ltibia 30.9881
lfoot -20.7768 -13.0818
ltoes -8.16308
342
root 10.8209 15.9338 13.2574 190.585 20.5074 177.418
lowerback -1.52562 0.703164 0.219378
upperback -8.51176 1.50358 -1.51482
thorax -8.00268 0.938395 -1.83406
lowerneck 2.47994 -10.0472 -29.0234
upperneck 6.72515 -15.6937 36.4843
head 7.57494 -7.30876 17.639
rclavicle -9.16894e-015 1.21259e-014
rhumerus -23.5882 19.5377 -77.0369
rradius 65.2357
rwrist -17.463
rhand -15.4995 -29.3668
rfingers 7.12502
rthumb 10.6829 -59.0752
lclavicle -9.16894e-015 1.21259e-014
lhumerus -32.0085 -17.7963 75.2932
lradius 74.4596
lwrist 61.8283
lhand -20.2087 16.0384
lfingers 7.12502
lthumb 6.13837 45.9295
rfemur -45.3516 3.45491 15.1
rtibia 40.2393
rfoot -12.2786 -6.5608
rtoes -29.7599
lfemur -19.4553 -1.41496 -27.7588
ltibia 30.458
lfoot -20.6963 -13.4383
ltoes -7.59164
343
root 10.8838 15.9426 13.1389 190.65 20.0497 177.344
lowerback -1.60556 0.64216 0.0372001
upperback -8.52257 1.42387 -1.51296
thorax -7.97378 0.915437 -1.72455
lowerneck 2.60119 -10.0768 -29.0273
upperneck 6.66886 -15.7493 36.5273
head 7.56345 -7.34369 17.6546
rclavicle -2.65067e-014 -4.96962e-017
rhumerus -23.5713 19.3965 -77.057
rradius 65.2221
rwrist -17.428
rhand -15.5023 -29.396
rfingers 7.12502
rthumb 10.6803 -59.1046
lclavicle -2.65067e-014 -4.96962e-017
lhumerus -31.8833 -17.8004 75.2755
lradius 74.4063
lwrist 61.8006
lhand -20.1902 16.0659
lfingers 7.12502
lthumb 6.15617 45.9564
rfemur -45.5613 3.66337 14.8105
rtibia 37.9654
rfoot -11.9021 -5.66618
rtoes -29.8175
lfemur -18.7373 -1.56631 -27.7311
ltibia 29.891
lfoot -20.601 -13.8142
ltoes -7.08912
344
root 10.9471 15.9504 13.0193 190.71 19.6051 177.262
lowerback -1.70137 0.583119 -0.145054
upperback -8.53084 1.34721 -1.51623
thorax -7.93228 0.893937 -1.62019
lowerneck 2.72207 -10.1055 -29.0395
upperneck 6.61389 -15.8046 36.5719
head 7.5535 -7.37896 17.6734
rclavicle 1.64122e-014 1.88845e-014
rhumerus -23.5486 19.2727 -77.0845
rradius 65.1898
rwrist -17.3874
rhand -15.5211 -29.4232
rfingers 7.12502
rthumb 10.6622 -59.1326
lclavicle 1.64122e-014 1.88845e-014
lhumerus -31.7646 -17.7879 75.2603
lradius 74.3466
lwrist 61.7655
lhand -20.1779 16.1012
lfingers 7.12502
lthumb 6.16803 45.9914
rfemur -45.7494 3.87276 14.4938
rtibia 35.7312
rfoot -11.5585 -4.66033
rtoes -29.9166
lfemur -17.9919 -1.68377 -27.7104
ltibia 29.2905
lfoot -20.5101 -14.1801
ltoes -6.77684
